<svg width="277" height="23" viewBox="0 0 277 23" fill="none" xmlns="http://www.w3.org/2000/svg">
<path fill-rule="evenodd" clip-rule="evenodd" d="M70.9417 0.504883H70.9248H65.961L53.9299 22.1739L53.9131 22.2244H58.5404L68.4513 4.38816L78.3454 22.2076V22.2244H82.9896L70.9417 0.504883Z" fill="#3C00FF"/>
<path fill-rule="evenodd" clip-rule="evenodd" d="M222.364 0.504883L212.453 18.3243L202.576 0.504883H202.559H197.915L209.963 22.2076L209.98 22.2244H214.944L226.975 0.538505L227.008 0.504883H222.364Z" fill="#3C00FF"/>
<path fill-rule="evenodd" clip-rule="evenodd" d="M18.4757 4.57252C16.2377 4.01777 13.8483 3.73199 11.3243 3.73199C8.80035 3.73199 7.0672 3.91691 6.09125 4.32037C5.16579 4.72382 4.69464 5.46349 4.69464 6.55619C4.69464 7.46397 5.09848 8.10278 5.93981 8.48943C6.78115 8.85926 8.49747 9.14505 11.1393 9.32997C17.3315 9.80067 20.0069 11.7171 20.0069 15.8189C20.0069 18.3405 19.0983 20.072 17.3315 21.0975C15.5647 22.1229 12.6368 22.6273 8.56477 22.6273C5.3004 22.6273 2.59131 22.3415 0.437493 21.7867L1.27883 18.0547C3.39899 18.6095 5.78837 18.8953 8.46381 18.8953C11.1393 18.8953 12.7883 18.7104 13.7474 18.3069C14.7402 17.9034 15.245 17.1638 15.245 16.0374C15.245 14.2387 14.3363 13.5495 8.5816 13.0283C2.72592 12.6249 0 10.9102 0 7.06051C0 2.05091 3.60091 0 11.358 0C14.5551 0 17.18 0.285783 19.2665 0.840537L18.4925 4.57252H18.4757Z" fill="#363636"/>
<path fill-rule="evenodd" clip-rule="evenodd" d="M41.0575 4.06855V22.1905H36.6489V4.06855H27.3438V0.521484H50.329V4.06855H41.0575Z" fill="#363636"/>
<path fill-rule="evenodd" clip-rule="evenodd" d="M108.011 0.739464L107.354 4.43783C105.823 4.00075 103.939 3.7822 101.6 3.7822C100.422 3.7822 99.4458 3.81583 98.7054 3.88307C97.2079 3.98394 95.6262 4.35378 94.8521 5.00939C93.5397 6.06847 92.9507 7.8336 92.9507 11.1957C92.9507 14.5579 93.4219 16.4239 94.8858 17.4998C96.3834 18.5925 98.1165 18.811 101.6 18.811C103.871 18.811 105.773 18.5925 107.354 18.189L108.011 21.9546C105.84 22.4253 103.4 22.6439 100.708 22.6439C96.3497 22.6439 93.4555 21.9546 91.3185 20.2231C89.1984 18.4748 88.2393 15.5665 88.2393 11.1789C88.2393 6.79133 89.1984 3.9335 91.3522 2.28605C93.506 0.571354 96.3329 0.0166016 100.725 0.0166016C103.366 0.0166016 105.789 0.26876 108.027 0.756272L108.011 0.739464Z" fill="#363636"/>
<path fill-rule="evenodd" clip-rule="evenodd" d="M134.681 22.1905C132.107 18.8956 129.7 16.2563 127.462 14.239C125.258 12.2218 123.609 11.0618 122.583 10.7928C123.727 10.1708 125.359 8.92685 127.462 7.09448C129.583 5.26211 131.72 3.05991 133.907 0.538299H139.51C137.138 3.11034 134.967 5.32936 133.015 7.12811C131.063 8.89323 129.65 10.0196 128.809 10.4903C129.717 10.9273 131.232 12.1713 133.385 14.2559C135.539 16.3068 137.828 18.9461 140.352 22.2073H134.698L134.681 22.1905ZM122.364 22.1905H118.006V0.521484H122.364V22.1905Z" fill="#363636"/>
<path fill-rule="evenodd" clip-rule="evenodd" d="M148.849 0.521484H153.19V18.6098H166.197V22.1905H148.849V0.521484Z" fill="#363636"/>
<path fill-rule="evenodd" clip-rule="evenodd" d="M173.18 0.521484H192.312V4.06855H177.521V9.07815H188.071V12.5916H177.521V18.6435H192.312V22.1905H173.18V0.521484Z" fill="#363636"/>
<path fill-rule="evenodd" clip-rule="evenodd" d="M232.596 0.521484H251.728V4.06855H236.954V9.07815H247.487V12.5916H236.954V18.6435H251.728V22.1905H232.596V0.521484Z" fill="#363636"/>
<path fill-rule="evenodd" clip-rule="evenodd" d="M259.484 0.521484H263.842V18.6098H276.849V22.1905H259.484V0.521484Z" fill="#363636"/>
<path d="M126.587 8.60645H120.327V12.9604H126.587V8.60645Z" fill="#363636"/>
</svg>

